<?xml version="1.0" standalone="no"?>
<!DOCTYPE svg PUBLIC "-//W3C//DTD SVG 20010904//EN"
 "http://www.w3.org/TR/2001/REC-SVG-20010904/DTD/svg10.dtd">
<svg version="1.0" xmlns="http://www.w3.org/2000/svg"
 width="512.000000pt" height="512.000000pt" viewBox="0 0 512.000000 512.000000"
 preserveAspectRatio="xMidYMid meet">

<g transform="translate(0.000000,512.000000) scale(0.100000,-0.100000)"
fill="#000000" stroke="none">
<path d="M2143 5048 c-16 -18 -22 -42 -27 -108 -12 -151 -56 -504 -126 -1015
-38 -275 -74 -545 -80 -600 -17 -157 -13 -149 -92 -200 -40 -25 -79 -45 -87
-45 -30 -1 -704 -463 -728 -498 -12 -19 -55 -56 -95 -84 -86 -59 -98 -73 -98
-108 0 -36 31 -62 67 -58 26 3 82 -48 557 -502 l527 -505 -338 -333 c-224
-220 -369 -354 -431 -399 -97 -70 -114 -94 -93 -139 12 -28 52 -47 78 -37 10
4 238 162 506 351 268 189 492 342 497 340 9 -3 110 -98 742 -704 331 -318
349 -334 404 -350 48 -14 66 -14 109 -5 96 22 104 31 418 498 162 241 300 455
307 477 16 50 9 132 -16 182 -16 30 -110 111 -410 352 -214 172 -400 321 -413
331 l-24 18 114 79 c63 43 135 98 160 121 l46 43 134 -6 c162 -7 190 3 227 78
23 46 54 182 67 291 6 55 11 63 76 134 45 49 73 91 81 117 7 23 34 67 60 99
27 33 48 68 48 81 0 31 -28 64 -62 72 -24 5 -36 -2 -94 -57 -63 -61 -66 -62
-60 -34 9 46 54 507 71 730 43 570 75 1058 75 1163 0 127 -7 152 -53 186 -28
21 -36 21 -595 22 -443 0 -656 5 -972 22 -494 27 -452 27 -477 0z m647 -35
c203 -11 483 -17 837 -17 l533 -1 27 -28 28 -28 -3 -142 c-2 -78 -21 -394 -43
-702 -39 -549 -51 -692 -86 -1024 l-17 -165 -252 -277 c-139 -153 -258 -280
-263 -283 -5 -4 -15 -23 -22 -44 -6 -20 -45 -75 -86 -121 -41 -46 -82 -98 -91
-117 -18 -40 -20 -40 -120 -15 -256 66 -621 105 -1202 131 -640 29 -1035 94
-1109 184 -19 23 19 76 88 124 50 35 58 37 145 41 188 7 641 -20 1131 -69 824
-83 1105 -104 1112 -84 3 8 -29 14 -99 19 -224 14 -1455 131 -1485 140 -9 3
-7 16 8 49 22 51 51 233 114 731 25 193 61 461 80 597 46 324 111 842 125 992
6 65 13 123 17 129 7 11 130 7 633 -20z m-910 -1926 c-4 -26 -10 -50 -13 -54
-4 -3 -19 6 -33 21 -15 14 -24 29 -21 32 9 9 72 52 73 50 1 0 -1 -22 -6 -49z
m-64 -48 c20 -17 26 -64 12 -98 -10 -24 -69 -70 -268 -206 -251 -173 -255
-175 -308 -175 -49 0 -56 3 -93 42 -21 23 -36 45 -32 48 18 15 590 397 603
403 19 8 69 0 86 -14z m2452 -61 c22 -22 13 -58 -25 -96 l-38 -38 -32 31 -31
32 38 41 c38 42 66 52 88 30z m-2433 -203 c-21 -146 -37 -198 -69 -224 -12
-10 -60 -11 -211 -5 -108 4 -194 10 -193 15 2 4 105 78 230 164 125 86 236
166 245 179 10 13 18 23 19 23 1 -1 -9 -70 -21 -152z m2327 78 c21 -18 24 -73
6 -106 -9 -17 -271 -313 -399 -451 -17 -18 -18 -18 -32 15 -17 42 -38 60 -78
68 l-32 6 168 185 c260 287 273 300 314 300 19 0 43 -7 53 -17z m-3011 -274
c8 -17 6 -19 -19 -19 -51 0 -121 -31 -172 -77 -27 -24 -54 -41 -60 -38 -15 9
208 165 226 158 8 -3 19 -14 25 -24z m2853 -160 c-20 -126 -47 -202 -81 -229
-22 -17 -40 -20 -130 -20 l-104 0 163 180 c89 98 164 178 165 176 2 -2 -4 -50
-13 -107z m-3119 -27 c1 -36 -18 -48 -40 -26 -20 20 -19 41 3 53 26 16 37 8
37 -27z m2808 -60 c9 -8 17 -20 17 -26 -1 -6 -32 -45 -70 -86 l-70 -75 -16 23
c-9 13 -25 27 -36 31 -18 6 -12 15 52 84 73 78 83 82 123 49z m-2586 -79 l63
-16 1071 -1026 c589 -564 1081 -1031 1092 -1038 31 -17 98 -16 124 2 12 8 152
211 312 450 301 449 305 457 281 519 -5 15 -164 148 -412 347 -222 177 -410
328 -418 335 -12 12 -12 16 5 29 51 40 31 52 458 -289 222 -178 414 -337 425
-353 30 -43 43 -109 31 -162 -7 -32 -89 -162 -295 -470 -157 -234 -298 -438
-312 -453 -56 -60 -173 -74 -243 -30 -26 16 -2239 2130 -2270 2169 -12 15 -12
16 5 10 10 -4 48 -15 83 -24z m2613 -3 c0 -15 -46 -60 -62 -60 -6 0 3 16 22
35 37 38 40 40 40 25z m-2310 -49 c188 -24 370 -37 675 -51 530 -23 795 -52
795 -88 0 -4 -116 -90 -257 -190 -279 -196 -391 -282 -494 -379 -37 -35 -69
-63 -73 -63 -3 0 -178 165 -388 366 -479 458 -458 437 -433 430 11 -3 90 -14
175 -25z m2114 -37 c30 -30 13 -74 -29 -74 -42 0 -59 44 -29 74 8 9 22 16 29
16 7 0 21 -7 29 -16z m-94 -58 c0 -8 9 -21 21 -29 20 -14 15 -19 -113 -110
-481 -341 -1061 -747 -1067 -747 -4 0 -19 13 -34 28 l-27 29 526 370 c497 351
528 371 556 362 41 -11 61 1 95 61 28 50 43 62 43 36z m-424 -37 c41 -8 73
-22 107 -47 26 -20 47 -37 47 -39 0 -1 -16 -14 -35 -28 l-34 -27 -78 63 c-112
89 -111 89 -87 89 11 0 47 -5 80 -11z m203 -56 c-16 -18 -24 -17 -56 11 l-28
24 47 -10 c38 -9 45 -14 37 -25z m-265 1 c24 -22 27 -27 15 -39 -8 -7 -124
-91 -259 -185 -287 -202 -377 -271 -483 -370 l-78 -73 -32 31 -31 31 60 56
c105 97 253 211 514 395 140 99 257 179 260 179 3 0 18 -11 34 -25z m96 -79
c13 -14 22 -26 19 -28 -32 -26 -853 -599 -862 -603 -8 -3 -20 3 -28 12 -12 14
-7 22 41 65 163 146 753 578 791 579 8 0 26 -11 39 -25z m540 -431 c217 -173
407 -327 423 -342 20 -19 27 -35 27 -63 0 -33 -37 -93 -276 -451 -152 -227
-287 -424 -300 -438 -18 -18 -35 -25 -63 -25 -35 0 -48 8 -103 60 -345 328
-988 948 -988 953 1 7 871 622 880 622 3 0 183 -142 400 -316z m-1655 -365
c-100 -98 -174 -155 -435 -336 -52 -37 -11 9 210 230 l274 277 32 -31 31 -30
-112 -110z m119 54 c-53 -44 -70 -46 -30 -5 22 23 44 38 49 35 6 -3 -3 -17
-19 -30z m88 -30 l27 -28 -476 -335 c-261 -184 -488 -341 -503 -349 -24 -12
-32 -12 -45 -1 -44 37 -37 43 468 399 265 187 487 341 493 341 5 0 22 -12 36
-27z"/>
<path d="M2430 4600 c-12 -8 -12 -10 0 -14 8 -3 161 -10 340 -16 405 -13 687
-27 900 -45 90 -8 166 -12 169 -9 34 33 -260 54 -1270 88 -69 2 -132 0 -139
-4z"/>
</g>
</svg>
