<?xml version="1.0" standalone="no"?>
<!DOCTYPE svg PUBLIC "-//W3C//DTD SVG 20010904//EN"
 "http://www.w3.org/TR/2001/REC-SVG-20010904/DTD/svg10.dtd">
<svg version="1.0" xmlns="http://www.w3.org/2000/svg"
 width="64.000000pt" height="64.000000pt" viewBox="0 0 64.000000 64.000000"
 preserveAspectRatio="xMidYMid meet">
<style>
    path {
        fill: #37373c;
    }
    @media (prefers-color-scheme: dark) {
        path {
            fill: #fff;
        }
    }
</style>
<g transform="translate(0.000000,64.000000) scale(0.100000,-0.100000)"
fill="#000000" stroke="none">
<path d="M187 564 c-4 -4 -7 -14 -7 -23 0 -11 3 -12 11 -4 6 6 10 16 7 23 -2
6 -7 8 -11 4z"/>
<path d="M154 497 c-1 -76 -37 -186 -104 -323 -28 -55 -50 -104 -50 -107 0 -4
43 -7 95 -7 57 0 95 4 95 10 0 6 -13 10 -30 10 l-29 0 13 38 c7 20 17 55 21
77 l8 40 11 -55 c7 -30 19 -68 27 -85 l14 -30 160 -3 c87 -1 165 0 172 2 9 4
-2 29 -37 82 -65 100 -69 115 -36 164 31 48 32 50 6 50 -20 0 -20 2 5 38 22
31 23 38 11 47 -13 8 -13 13 2 37 20 35 25 35 47 1 12 -18 14 -28 7 -31 -17
-5 -14 -24 8 -52 24 -30 25 -40 5 -40 -22 0 -18 -16 15 -65 l30 -44 -32 -4
c-28 -3 -27 -4 10 -5 32 -2 41 1 36 10 -4 7 -18 29 -30 49 -23 37 -23 37 -3
42 20 5 20 7 -5 44 -21 31 -24 39 -11 41 20 5 20 8 -17 65 l-32 50 -22 -28
c-39 -49 -50 -75 -35 -84 10 -6 8 -16 -8 -42 -25 -41 -26 -49 -6 -49 19 0 19
-9 0 -34 -17 -23 -18 -22 -34 23 -15 45 -14 94 2 110 10 11 9 13 -5 8 -9 -3
-19 -1 -22 6 -2 7 -5 4 -5 -5 -1 -22 -19 -22 -89 -4 -71 19 -142 62 -142 86 0
10 -3 21 -7 23 -5 3 -8 -23 -9 -56z m88 -42 c29 -13 76 -29 105 -35 l52 -11
11 -53 c12 -60 69 -185 106 -233 13 -17 24 -34 24 -37 0 -3 -35 -6 -78 -6 -75
0 -79 1 -109 32 -47 49 -98 139 -131 231 -31 88 -45 137 -38 137 2 0 28 -11
58 -25z m-53 -62 c17 -70 93 -221 136 -271 l37 -42 -61 0 c-34 0 -61 3 -61 6
0 3 8 19 17 35 16 27 16 29 -4 51 -25 27 -57 91 -67 132 -10 42 -17 27 -32
-74 -7 -49 -20 -103 -29 -120 -14 -27 -21 -30 -60 -30 l-45 0 44 88 c45 90 96
230 96 264 0 33 17 10 29 -39z m51 -272 l-13 -26 -12 30 c-7 17 -16 48 -20 70
l-7 40 32 -44 c29 -39 31 -46 20 -70z"/>
<path d="M531 373 c0 -29 -6 -53 -12 -55 -9 -3 -9 -10 0 -26 15 -27 7 -42 -22
-43 -20 -1 -20 -2 3 -8 20 -5 26 -15 31 -46 4 -25 7 -1 8 66 0 66 5 109 13
117 8 8 9 12 1 12 -6 0 -14 8 -16 18 -3 9 -5 -6 -6 -35z"/>
</g>
</svg>
