<?xml version="1.0" standalone="no"?>
<!DOCTYPE svg PUBLIC "-//W3C//DTD SVG 20010904//EN"
 "http://www.w3.org/TR/2001/REC-SVG-20010904/DTD/svg10.dtd">
<svg version="1.0" xmlns="http://www.w3.org/2000/svg"
 width="512.000000pt" height="512.000000pt" viewBox="0 0 512.000000 512.000000"
 preserveAspectRatio="xMidYMid meet">

<g transform="translate(0.000000,512.000000) scale(0.100000,-0.100000)"
fill="#000000" stroke="none">
<path d="M2452 5050 c-136 -49 -223 -159 -252 -320 -21 -117 2 -224 86 -395
63 -129 79 -193 71 -290 -12 -163 -101 -294 -211 -312 -28 -4 -39 -1 -60 20
-36 36 -34 89 5 180 62 142 45 271 -47 363 -72 73 -187 92 -280 48 -19 -9 -34
-20 -34 -24 0 -4 23 -10 51 -13 111 -13 179 -86 179 -191 0 -87 -34 -135 -148
-205 -188 -118 -248 -364 -139 -577 26 -52 68 -102 212 -254 133 -141 176
-253 142 -371 -25 -85 -26 -86 -159 -94 l-117 -6 -6 43 c-4 25 0 81 9 133 20
113 20 141 -1 204 -27 86 -100 154 -186 175 -71 17 -188 -51 -216 -127 -12
-30 -15 -90 -5 -99 3 -4 22 5 41 18 43 29 56 30 98 4 35 -21 65 -81 65 -127 0
-20 -65 -228 -75 -241 -1 -1 -155 -14 -341 -27 l-339 -24 -29 -33 c-29 -31
-32 -32 -96 -29 -64 3 -68 1 -93 -29 -29 -33 -33 -54 -18 -92 6 -16 197 -149
585 -407 521 -347 575 -386 570 -407 -3 -12 -1 -30 4 -41 6 -10 175 -130 376
-267 201 -137 366 -252 366 -255 0 -3 -282 -192 -626 -420 -384 -254 -630
-424 -636 -437 -15 -32 13 -74 48 -74 17 0 101 49 233 137 665 441 912 602
908 596 -3 -5 -73 -120 -156 -256 -84 -137 -154 -261 -157 -277 -5 -23 -1 -31
20 -45 44 -29 68 -14 127 82 29 49 122 199 205 335 l152 248 159 -253 c140
-222 162 -252 187 -255 32 -4 66 22 66 51 0 11 -45 92 -100 180 -56 88 -99
161 -98 163 2 1 224 -148 493 -331 325 -222 499 -334 516 -335 30 0 59 28 59
57 0 12 -13 32 -29 45 -15 12 -281 194 -589 403 -309 209 -561 382 -561 385 0
3 144 100 320 215 176 116 327 220 335 231 8 12 13 32 10 45 -5 22 45 57 598
422 398 263 607 407 615 423 10 23 6 57 -17 143 -13 45 -49 58 -242 91 -102
17 -197 33 -211 36 -23 4 -27 11 -33 56 -10 73 -35 131 -100 233 -66 105 -89
171 -80 233 12 81 93 172 218 245 58 33 53 46 -32 78 -153 57 -320 -18 -395
-178 -27 -59 -31 -79 -36 -189 -7 -137 -18 -164 -82 -196 -69 -36 -147 -13
-190 54 -17 28 -20 45 -17 114 4 76 7 86 70 205 102 192 117 266 78 391 -38
123 -141 229 -256 264 -56 17 -94 11 -120 -17 -20 -22 -12 -36 26 -41 14 -2
34 -17 47 -37 54 -80 6 -191 -101 -236 -74 -31 -149 6 -182 90 -26 70 -15 158
35 284 72 179 87 296 56 429 -34 145 -112 232 -209 232 -63 0 -89 -22 -41 -34
54 -14 81 -105 50 -166 -18 -36 -43 -50 -86 -50 -90 0 -199 224 -199 412 0 80
8 107 49 171 25 39 94 87 125 87 29 0 12 24 -25 37 -51 18 -147 15 -207 -7z
m165 -6 c21 -6 20 -8 -18 -36 -82 -59 -127 -168 -116 -284 8 -79 60 -238 101
-307 88 -148 258 -107 244 60 -3 38 -11 61 -29 79 l-24 27 30 -7 c113 -27 178
-152 178 -341 0 -101 -12 -151 -74 -310 -52 -135 -58 -220 -20 -297 33 -69 71
-93 147 -93 75 0 130 32 169 100 47 79 28 189 -36 217 -16 7 -29 16 -29 20 0
18 80 6 135 -21 74 -35 137 -101 177 -188 26 -54 31 -77 31 -141 0 -87 -10
-116 -90 -263 -70 -127 -91 -209 -76 -284 7 -30 21 -68 32 -84 56 -79 193 -81
264 -6 33 37 47 94 47 199 0 107 24 176 85 244 58 65 128 96 215 95 39 0 81
-7 104 -17 l40 -17 -65 -43 c-212 -142 -240 -284 -99 -491 71 -105 85 -144 85
-245 0 -82 -4 -103 -27 -152 -18 -39 -33 -58 -45 -58 -10 0 -380 -23 -822 -50
-736 -45 -808 -51 -847 -70 -59 -29 -100 -79 -120 -146 -19 -67 -15 -98 32
-212 20 -46 34 -85 32 -87 -2 -1 -13 -7 -24 -13 -21 -11 -27 -2 -125 191 -152
298 -194 333 -436 359 -116 13 -118 14 -132 43 -9 18 -15 59 -15 105 0 62 6
89 33 155 61 146 51 249 -28 302 -39 26 -74 29 -113 9 -32 -17 -34 -10 -13 41
20 48 41 71 87 94 91 46 196 4 251 -101 31 -59 31 -68 11 -303 -11 -115 33
-193 115 -204 55 -8 93 10 144 67 97 108 103 270 14 404 -19 29 -89 109 -155
179 -166 175 -214 280 -197 431 15 138 68 219 200 310 97 66 129 108 141 184
15 97 -51 201 -146 232 l-45 15 55 3 c74 5 123 -12 172 -56 71 -64 100 -166
74 -257 -8 -27 -27 -84 -41 -125 -23 -64 -25 -79 -16 -112 41 -134 210 -88
295 80 34 68 47 124 48 206 0 95 -12 137 -82 286 -68 145 -85 218 -78 334 7
98 35 171 94 235 77 86 214 138 301 115z m-677 -2474 c-19 -17 -48 -33 -66
-36 -35 -6 -88 15 -97 40 -5 12 7 16 66 19 40 1 86 4 102 5 l30 1 -35 -29z
m2355 -44 c170 -29 202 -37 217 -56 25 -30 23 -50 -3 -43 -21 6 -446 -14 -486
-23 l-22 -4 24 65 c14 36 25 74 25 85 0 16 5 19 23 15 12 -3 112 -21 222 -39z
m-2825 -8 c0 -24 5 -60 11 -81 6 -22 9 -41 6 -43 -6 -6 -708 74 -716 81 -11
12 41 45 73 46 17 0 137 9 266 18 129 10 263 19 298 20 l62 1 0 -42z m-259
-122 l567 -64 61 -32 c34 -19 75 -49 90 -69 22 -28 349 -653 580 -1109 l22
-43 -195 133 c-521 354 -558 379 -577 373 -12 -4 -183 104 -576 366 -307 204
-568 381 -580 392 -31 28 -31 80 -1 101 12 9 27 16 33 16 5 0 265 -29 576 -64z
m3307 -2 c17 -12 22 -24 20 -47 -3 -30 -37 -54 -608 -434 -457 -304 -612 -403
-635 -403 -22 0 -117 -58 -367 -225 -186 -124 -342 -225 -346 -225 -5 0 -96
213 -202 473 -189 458 -194 474 -195 543 0 62 4 76 29 112 19 27 46 50 80 66
50 24 78 26 1091 89 572 35 1056 65 1075 66 20 0 46 -6 58 -15z m-2221 -718
c43 -103 49 -127 35 -124 -10 2 -40 48 -77 121 -51 99 -58 119 -45 127 8 5 19
8 25 7 5 -2 33 -61 62 -131z m506 -811 c846 -576 1023 -700 1025 -720 4 -31
-18 -41 -50 -23 -14 7 -478 321 -1031 698 -792 539 -1007 689 -1007 706 0 24
8 34 27 34 8 0 474 -313 1036 -695z m-446 653 c12 -15 73 -163 73 -175 -1 -7
-100 177 -100 185 0 7 19 0 27 -10z m951 -37 c37 -23 3 -51 -313 -262 -176
-116 -327 -214 -336 -216 -8 -2 -26 4 -39 15 l-24 19 340 226 c186 124 344
226 349 226 6 0 16 -3 23 -8z m-781 -539 c23 -17 16 -21 -603 -432 -345 -228
-637 -421 -650 -427 -31 -17 -56 -6 -52 23 2 19 127 105 628 438 344 228 632
415 640 415 8 0 25 -7 37 -17z m23 -69 c-86 -147 -386 -631 -400 -646 -9 -10
-23 -15 -32 -12 -41 16 -44 9 241 475 74 121 90 140 144 177 34 23 64 42 65
42 2 1 -6 -16 -18 -36z m281 -232 c143 -226 145 -230 125 -250 -13 -12 -20
-13 -34 -5 -16 10 -320 480 -321 497 -1 4 27 -12 62 -35 58 -39 72 -55 168
-207z"/>
<path d="M2297 3182 c-33 -35 -47 -72 -47 -128 0 -61 28 -129 98 -237 51 -80
70 -120 89 -186 2 -9 7 -11 13 -5 19 19 -19 109 -89 218 -49 75 -73 124 -81
161 -12 57 -6 113 14 141 11 15 14 13 19 -20 7 -45 40 -92 77 -111 84 -43 191
14 207 110 7 43 -13 48 -22 5 -10 -44 -51 -88 -94 -101 -32 -9 -44 -8 -74 6
-45 21 -82 90 -72 134 9 40 -7 46 -38 13z"/>
<path d="M640 2400 c0 -14 -2 -14 585 -85 556 -67 606 -72 590 -56 -8 7 -1118
151 -1166 151 -5 0 -9 -4 -9 -10z"/>
<path d="M3366 2289 c-560 -38 -1021 -71 -1024 -74 -3 -3 -2 -8 2 -12 7 -7
2065 125 2079 134 12 7 -3 23 -21 22 -9 -1 -476 -32 -1036 -70z"/>
<path d="M3360 4986 c-123 -35 -185 -99 -185 -192 0 -51 1 -54 73 -127 62 -65
72 -80 72 -111 0 -38 -28 -76 -55 -76 -8 0 -25 10 -36 21 -17 17 -20 30 -16
65 6 57 -10 58 -57 2 -38 -44 -52 -90 -42 -140 10 -51 34 -78 92 -104 43 -19
58 -32 70 -59 19 -47 18 -65 -11 -120 -14 -26 -24 -50 -21 -52 2 -2 24 1 47 7
63 17 93 50 113 124 14 49 32 82 86 150 43 54 72 101 76 122 16 84 -19 149
-111 210 -54 36 -85 82 -85 125 0 36 39 107 71 130 16 11 29 25 29 30 0 12
-55 10 -110 -5z m38 -33 c-50 -57 -62 -144 -28 -200 10 -18 45 -49 75 -70 61
-40 105 -102 105 -147 0 -37 -24 -80 -83 -151 -51 -61 -86 -126 -87 -158 0
-31 -29 -76 -60 -92 -40 -21 -43 -19 -25 15 37 71 6 158 -68 190 -49 22 -71
43 -86 83 -14 35 0 94 29 129 l19 23 1 -31 c0 -43 34 -84 69 -84 37 0 78 33
86 68 9 43 -10 81 -75 147 -32 33 -64 73 -70 88 -25 69 35 155 132 188 70 24
86 25 66 2z"/>
<path d="M1395 4118 c-7 -24 -24 -42 -60 -64 -121 -76 -152 -138 -142 -283 6
-89 39 -178 93 -252 36 -50 117 -119 138 -119 7 0 11 29 11 83 0 81 1 83 53
172 54 95 66 150 41 197 -15 29 -74 51 -99 38 -19 -10 -19 -12 -4 -35 15 -23
15 -27 0 -50 -19 -29 -38 -32 -61 -8 -24 23 -13 64 32 125 41 57 52 117 34
186 -14 50 -24 53 -36 10z m25 -82 c0 -22 -15 -55 -45 -102 -48 -73 -56 -114
-29 -152 20 -29 67 -29 95 -1 16 16 20 29 16 55 -7 43 12 46 43 7 29 -37 22
-89 -21 -157 -57 -90 -71 -127 -73 -188 0 -32 -4 -58 -7 -58 -3 0 -29 25 -58
55 -118 124 -163 324 -101 446 14 27 37 48 74 69 29 17 61 39 71 50 23 25 35
17 35 -24z"/>
<path d="M3860 3955 c0 -2 9 -19 20 -37 11 -18 20 -43 20 -55 0 -34 -45 -80
-87 -88 -124 -23 -165 -128 -89 -228 34 -45 53 -47 48 -5 -6 53 28 83 125 108
57 14 100 53 113 102 15 52 5 92 -33 134 -33 39 -117 88 -117 69z m108 -95
c26 -38 28 -89 7 -130 -17 -33 -52 -54 -105 -64 -51 -9 -99 -42 -114 -78 l-14
-32 -16 32 c-39 75 4 152 93 166 61 9 101 51 101 106 0 49 14 49 48 0z"/>
</g>
</svg>
