<svg version="1.0" xmlns="http://www.w3.org/2000/svg"
 width="500.000000pt" height="500.000000pt" viewBox="0 0 500.000000 500.000000"
 preserveAspectRatio="xMidYMid meet">
<style type="text/css">
.fv__logo-g{fill: transparent;
    stroke: #fff;
    stroke-dasharray: 12000;
    stroke-dashoffset: 0;
    stroke-opacity: 0;
    stroke-width: 15;
    animation: hello 6s ease-in-out forwards 3.5s;}
@keyframes hello {
  0% {
    stroke-dashoffset: 12000;
    fill: transparent;
    stroke-opacity: 1;
  }
  35% {
    fill: transparent;
    stroke-opacity: 1;
  }
  70% {
    fill: #fff;
  }
  100% {
    stroke-dashoffset: 0;
    stroke-opacity: 0;
    fill: #fff;
  }
}
</style>
            <g
                transform="translate(0.000000,500.000000) scale(0.100000,-0.100000)"
                class="fv__logo-g"
              >
                <path
                  d="M2090 4454 c-23 -54 -26 -84 -6 -84 18 0 29 15 48 67 11 30 13 44 5
52 -19 19 -27 13 -47 -35z"
                />
                <path
                  d="M1987 4453 c-3 -5 1 -40 9 -78 18 -83 9 -169 -37 -355 -71 -296 -242
-705 -408 -980 -29 -46 -49 -90 -47 -97 4 -10 68 -13 298 -13 161 0 299 4 307
9 8 5 11 16 8 25 -5 13 -24 16 -103 16 -73 0 -95 3 -91 13 60 141 98 272 112
391 4 31 11 58 15 61 4 3 11 -21 15 -53 17 -136 100 -398 142 -444 15 -17 48
-18 538 -18 424 0 525 3 534 13 8 11 0 27 -36 73 -80 102 -194 282 -255 402
-32 63 -58 120 -58 126 0 6 38 69 85 141 95 146 95 155 9 155 l-54 0 81 125
c44 68 78 129 74 135 -3 5 -28 10 -55 10 l-50 0 66 103 c36 56 70 106 74 111
5 5 41 -40 80 -100 l72 -109 -46 -3 c-30 -2 -49 -9 -53 -18 -3 -8 28 -65 72
-132 l77 -117 -57 -3 c-37 -2 -58 -8 -62 -17 -3 -9 37 -79 91 -162 l96 -148
-91 -3 c-87 -3 -90 -4 -87 -25 3 -21 8 -22 103 -25 110 -3 145 2 145 21 0 6
-43 77 -95 157 l-95 145 58 5 c40 4 58 9 59 20 2 8 -31 67 -72 130 l-74 115
37 3 c42 4 65 19 58 38 -15 39 -198 304 -209 304 -16 0 -207 -289 -207 -313 0
-18 21 -27 61 -27 16 0 29 -3 29 -6 0 -3 -34 -58 -75 -121 -85 -131 -85 -143
-4 -143 27 0 49 -3 49 -6 0 -3 -25 -45 -57 -92 l-56 -87 -18 41 c-24 53 -67
221 -78 304 l-8 65 39 47 c22 26 37 52 33 58 -11 17 -40 11 -54 -12 l-15 -23
-6 25 c-4 16 -13 25 -25 25 -16 0 -21 -8 -23 -42 -2 -24 -7 -43 -11 -43 -24 0
-187 34 -268 56 -150 40 -284 104 -406 195 -4 3 -16 39 -25 80 -12 51 -22 75
-34 77 -9 2 -18 -1 -21 -5z m278 -324 c89 -40 205 -74 335 -99 63 -12 124 -23
135 -25 17 -4 24 -22 43 -121 53 -278 179 -554 375 -824 l55 -75 -252 -3 -251
-3 -86 90 c-227 238 -426 657 -543 1143 l-6 27 67 -41 c38 -23 95 -54 128 -69z
m-201 -51 c22 -86 91 -294 131 -393 104 -261 239 -489 384 -647 l53 -58 -187
0 -186 0 7 23 c11 35 50 109 78 146 l25 34 -46 51 c-103 115 -175 248 -218
406 -15 52 -28 101 -31 108 -2 8 -12 12 -21 10 -15 -3 -21 -27 -35 -158 -30
-269 -85 -502 -138 -587 l-20 -33 -146 0 -146 0 31 53 c70 117 163 299 216
422 72 164 167 447 197 587 13 60 25 108 28 108 3 0 14 -33 24 -72z m136 -763
c19 -27 51 -69 72 -91 l38 -41 -35 -58 c-19 -32 -37 -67 -41 -77 -3 -10 -9
-18 -14 -18 -20 0 -77 190 -105 348 -21 121 -19 126 18 52 18 -36 48 -87 67
-115z"
                />
                <path
                  d="M3152 4018 c-8 -8 -12 -58 -12 -165 l0 -153 -25 6 c-19 5 -25 2 -25
-11 0 -9 11 -30 25 -47 20 -24 25 -41 25 -84 l0 -54 -59 0 c-41 0 -60 -4 -64
-14 -9 -23 15 -36 70 -36 l53 0 0 -109 c0 -86 3 -111 15 -121 10 -8 19 -10 25
-4 5 5 10 149 12 319 3 303 3 311 26 342 30 43 29 67 -2 61 -23 -5 -25 -2 -28
35 -3 43 -16 55 -36 35z"
                />
                <path
                  d="M1490 2660 c-71 -17 -113 -116 -113 -267 -1 -77 3 -99 24 -140 43
-86 164 -121 203 -60 16 23 24 156 12 175 -4 7 -23 12 -41 12 -28 0 -36 -4
-41 -24 -3 -14 -4 -32 -2 -42 5 -30 26 -27 33 5 10 48 25 37 25 -18 0 -62 -13
-97 -39 -106 -26 -8 -87 18 -100 43 -12 23 -4 281 11 330 12 41 47 64 90 60
28 -2 34 -7 36 -30 4 -34 22 -37 23 -5 4 72 -27 89 -121 67z"
                />
                <path
                  d="M1665 2660 c-3 -5 2 -21 11 -35 14 -21 16 -52 13 -221 -4 -180 -6
-197 -23 -210 -34 -24 -6 -32 92 -27 l93 6 -3 65 c-2 41 -8 67 -15 70 -10 3
-13 -12 -13 -52 0 -56 0 -56 -30 -56 -18 0 -33 6 -37 15 -10 28 12 412 25 428
6 7 9 17 5 20 -10 11 -111 8 -118 -3z"
                />
                <path
                  d="M2015 2644 c-40 -43 -66 -130 -86 -284 -16 -124 -22 -147 -40 -161
-17 -13 -19 -18 -8 -24 24 -16 75 -15 94 0 20 14 20 15 -2 21 -27 7 -28 26
-12 139 l12 76 41 -6 c22 -4 43 -9 45 -11 3 -3 7 -44 9 -93 4 -72 1 -93 -13
-115 l-17 -26 56 0 56 0 0 31 c0 78 -33 364 -46 401 -15 43 -40 78 -56 78 -5
0 -20 -12 -33 -26z m34 -78 c6 -25 11 -66 11 -91 l0 -46 -37 3 c-27 2 -39 8
-41 21 -5 23 36 157 47 157 5 0 14 -20 20 -44z"
                />
                <path
                  d="M2180 2656 c0 -16 27 -29 41 -20 5 3 9 -85 9 -215 0 -195 -2 -221
-16 -221 -36 0 -4 -25 36 -28 42 -3 80 15 53 25 -14 5 -16 122 -4 248 l7 70
26 -85 c15 -47 30 -98 34 -115 14 -63 40 -72 49 -17 12 66 57 256 65 272 5 8
7 -72 5 -179 -2 -138 -7 -196 -15 -201 -23 -14 -2 -26 49 -28 39 -1 51 1 51
12 0 8 -9 18 -20 21 -19 6 -20 15 -20 226 0 121 4 218 8 215 13 -8 35 11 28
23 -10 15 -91 14 -103 -1 -6 -7 -20 -56 -32 -108 -12 -52 -25 -108 -30 -125
l-7 -30 -19 50 c-85 229 -82 225 -154 225 -28 0 -41 -4 -41 -14z"
                />
                <path
                  d="M2614 2656 c-10 -8 -17 -16 -14 -18 3 -2 14 -8 25 -14 19 -11 20 -22
20 -205 0 -107 -2 -200 -4 -206 -2 -7 -9 -13 -17 -13 -8 0 -14 -7 -14 -15 0
-12 14 -15 70 -15 56 0 70 3 70 15 0 8 -9 15 -20 15 -20 0 -21 5 -18 87 l3 87
41 8 c63 13 106 63 112 131 5 59 -22 128 -57 147 -30 16 -173 13 -197 -4z
m177 -38 c4 -6 10 -28 13 -50 12 -74 -27 -155 -71 -146 -16 3 -18 16 -21 97
-4 118 -1 125 40 117 18 -3 35 -11 39 -18z"
                />
                <path
                  d="M2903 2657 c-2 -4 0 -13 5 -20 15 -18 18 -430 4 -435 -7 -2 -12 -10
-12 -17 0 -9 17 -14 51 -17 54 -3 68 4 49 27 -18 21 -11 414 8 437 8 9 11 21
7 27 -7 12 -104 10 -112 -2z"
                />
                <path
                  d="M3044 2659 c-4 -7 3 -19 14 -28 19 -14 22 -29 27 -151 3 -74 8 -163
10 -197 4 -48 2 -65 -11 -77 -27 -27 -10 -46 41 -46 51 0 72 23 42 45 -15 10
-17 34 -17 166 0 95 4 149 9 144 5 -6 33 -82 62 -170 53 -165 70 -198 90 -178
11 11 14 429 3 457 -3 8 4 16 15 19 43 11 20 27 -39 27 -33 0 -60 -3 -60 -7 0
-4 12 -17 28 -29 l27 -22 0 -161 c1 -88 0 -159 -1 -158 -1 1 -29 72 -63 157
-79 201 -91 220 -135 220 -19 0 -38 -5 -42 -11z"
                />
                <path
                  d="M3488 2660 c-69 -13 -107 -90 -115 -235 -6 -107 6 -162 48 -210 29
-32 79 -55 122 -55 10 0 32 13 48 29 27 27 29 35 29 104 0 80 -5 87 -56 87
-27 0 -34 -10 -37 -56 -2 -36 24 -41 33 -6 10 46 24 26 21 -33 -3 -91 -45
-115 -120 -68 -23 15 -23 15 -19 176 5 209 18 237 103 237 29 0 34 -4 37 -25
5 -38 23 -35 26 5 6 55 -26 69 -120 50z"
                />
                <path
                  d="M1644 1961 c-9 -10 -3 -31 10 -31 9 0 17 -25 26 -77 14 -89 66 -315
82 -355 6 -16 14 -28 19 -28 10 0 32 72 58 195 43 195 61 258 76 269 27 19 -2
35 -49 27 -35 -5 -37 -8 -23 -20 10 -7 17 -24 17 -37 0 -40 -63 -285 -71 -277
-7 8 -26 92 -49 221 -10 57 -9 65 6 77 10 7 15 19 11 28 -5 13 -18 16 -57 14
-28 -1 -53 -4 -56 -6z"
                />
                <path
                  d="M1950 1948 c0 -10 5 -18 10 -18 6 0 10 -78 10 -214 0 -190 -2 -215
-17 -220 -27 -11 -2 -25 49 -27 54 -3 71 7 45 26 -17 12 -17 28 -11 221 5 163
10 213 21 226 14 15 13 18 -8 22 -13 3 -41 4 -61 3 -29 -2 -38 -6 -38 -19z"
                />
                <path
                  d="M2106 1961 c-3 -5 2 -23 10 -41 14 -27 16 -61 12 -222 -4 -172 -6
-192 -23 -204 -33 -24 -4 -32 93 -27 l92 6 0 53 c0 93 -27 120 -32 32 -3 -51
-4 -53 -33 -53 l-30 0 3 210 c2 116 7 214 13 220 23 23 8 35 -45 35 -30 0 -57
-4 -60 -9z"
                />
                <path
                  d="M2330 1960 c-12 -7 -12 -12 4 -29 16 -17 17 -39 14 -221 -3 -179 -5
-203 -21 -215 -33 -24 2 -33 97 -26 l90 6 -3 60 c-3 63 -6 75 -22 75 -5 0 -9
-25 -9 -55 0 -54 -1 -55 -29 -55 -26 0 -29 4 -34 38 -7 53 13 395 24 407 5 5
9 13 9 17 0 11 -102 10 -120 -2z"
                />
                <path
                  d="M2682 1952 c-38 -38 -71 -144 -91 -291 -17 -125 -23 -147 -42 -161
-16 -13 -19 -19 -9 -25 17 -10 70 -15 93 -9 21 6 23 34 2 34 -12 0 -15 13 -14
63 0 34 3 80 7 102 8 39 8 40 47 37 22 -2 43 -9 47 -15 11 -18 10 -185 -2
-192 -5 -3 -10 -13 -10 -21 0 -10 13 -14 48 -14 27 0 51 2 53 5 8 8 -28 379
-41 422 -13 43 -42 83 -60 83 -6 0 -18 -8 -28 -18z m27 -79 c6 -21 11 -62 11
-90 0 -51 -1 -53 -27 -53 -43 0 -57 13 -49 46 20 80 38 134 46 134 5 0 14 -17
19 -37z"
                />
                <path
                  d="M2950 1960 c-38 -9 -53 -25 -82 -90 -23 -49 -35 -187 -24 -265 13
-84 102 -156 175 -140 50 11 65 37 67 123 3 84 -1 92 -53 92 -29 0 -33 -4 -39
-36 -7 -41 10 -70 26 -44 5 8 10 23 10 33 0 9 5 17 10 17 6 0 10 -27 10 -60 0
-94 -42 -120 -117 -74 -26 16 -25 11 -23 188 2 183 22 226 104 226 33 0 36 -2
36 -30 0 -36 17 -40 26 -6 16 65 -29 89 -126 66z"
                />
                <path
                  d="M3190 1963 c-53 -8 -70 -14 -70 -23 0 -6 9 -10 20 -10 19 0 20 -7 20
-216 0 -207 -1 -216 -20 -221 -37 -10 -21 -20 41 -27 141 -14 174 -5 167 49
-4 32 -21 34 -28 3 -3 -13 -11 -23 -18 -22 -7 1 -25 2 -41 3 l-28 1 -6 87 c-3
48 -3 93 0 100 7 18 50 17 57 -2 11 -30 26 -14 26 30 0 33 -4 45 -15 45 -8 0
-15 -7 -15 -15 0 -16 -17 -19 -44 -9 -13 5 -16 23 -16 95 0 79 2 89 20 99 32
17 74 8 85 -17 18 -42 41 -21 30 27 -7 30 -7 30 -73 29 -37 -1 -78 -3 -92 -6z"
                />
                <path
                  d="M1250 1196 c0 -23 -3 -24 -42 -19 -24 3 -47 9 -52 14 -20 18 -32 8
-49 -40 -21 -59 -21 -61 -4 -61 8 0 21 19 30 41 16 39 18 41 48 35 18 -3 34
-8 36 -9 2 -2 -8 -37 -22 -77 -28 -82 -31 -104 -13 -98 6 2 24 40 38 83 26 77
46 100 78 88 8 -4 12 5 12 26 0 31 -23 44 -33 19 -3 -8 -6 -6 -6 5 -1 26 -21
20 -21 -7z"
                />
                <path
                  d="M2717 1213 c-4 -3 -7 -13 -7 -22 0 -13 -9 -15 -45 -13 -25 2 -45 8
-45 13 0 5 -6 9 -12 9 -7 0 -23 -25 -35 -55 -17 -46 -19 -55 -6 -55 8 0 22 18
31 40 17 41 40 50 71 31 13 -8 12 -20 -9 -85 -25 -82 -26 -89 -12 -94 6 -2 23
35 38 82 16 49 34 86 41 86 8 0 13 13 13 35 0 33 -8 43 -23 28z"
                />
                <path
                  d="M3907 1213 c-13 -13 -7 -53 8 -53 10 0 15 10 15 30 0 29 -9 38 -23
23z"
                />
                <path
                  d="M2750 1179 c0 -38 24 -35 28 4 2 19 -1 27 -12 27 -11 0 -16 -10 -16
-31z"
                />
                <path
                  d="M3173 1119 c4 -51 11 -97 16 -102 12 -12 70 15 116 56 52 47 32 47
-35 1 -28 -19 -54 -33 -57 -30 -3 3 -8 40 -12 82 -4 53 -10 79 -20 82 -12 4
-13 -11 -8 -89z"
                />
                <path
                  d="M3860 1190 c0 -11 7 -20 15 -20 8 0 15 9 15 20 0 11 -7 20 -15 20 -8
0 -15 -9 -15 -20z"
                />
                <path
                  d="M2100 1176 c0 -21 -6 -25 -46 -31 -26 -3 -53 -9 -60 -12 -10 -4 -14
4 -14 26 0 20 -5 31 -14 31 -10 0 -13 -15 -11 -62 3 -92 4 -95 21 -112 17 -18
109 -22 134 -6 24 15 6 21 -29 9 -61 -21 -101 9 -101 75 0 21 7 24 85 36 47 7
90 19 96 27 18 21 2 43 -31 43 -25 0 -30 -4 -30 -24z m40 4 c0 -5 -5 -10 -11
-10 -5 0 -7 5 -4 10 3 6 8 10 11 10 2 0 4 -4 4 -10z"
                />
                <path
                  d="M2861 1121 c5 -97 21 -121 83 -121 50 0 86 9 86 21 0 5 -12 6 -27 2
-73 -20 -113 2 -113 63 0 32 1 32 58 38 31 3 66 5 77 4 15 -2 21 4 23 24 3 22
-2 30 -23 38 -40 15 -47 12 -43 -17 3 -26 0 -28 -44 -33 l-48 -6 0 33 c0 24
-5 33 -16 33 -14 0 -16 -12 -13 -79z"
                />
                <path
                  d="M1430 1180 c-39 -6 -33 -7 38 -8 49 -1 82 2 82 8 0 11 -50 11 -120 0z"
                />
                <path
                  d="M3750 1170 c14 -4 39 -8 55 -8 25 -1 27 1 10 8 -11 5 -36 8 -55 8
-32 0 -33 -1 -10 -8z"
                />
                <path
                  d="M1715 1140 c16 -16 38 -30 49 -30 18 0 17 3 -9 30 -16 17 -38 30 -49
30 -18 0 -17 -3 9 -30z"
                />
                <path
                  d="M2305 1140 c28 -29 55 -39 55 -21 0 14 -50 51 -68 51 -11 0 -8 -9 13
-30z"
                />
                <path
                  d="M1441 1139 c-81 -14 -77 -23 7 -15 40 3 72 2 72 -3 0 -5 -21 -37 -46
-71 -44 -60 -50 -78 -21 -67 21 8 110 144 103 156 -8 13 -38 12 -115 0z"
                />
                <path
                  d="M1814 1102 c-20 -32 -41 -50 -62 -57 -39 -11 -42 -25 -5 -25 19 0 41
14 75 50 47 48 61 81 36 79 -7 0 -27 -21 -44 -47z"
                />
                <path
                  d="M2430 1140 c0 -19 -82 -100 -101 -100 -11 0 -19 -5 -19 -11 0 -20 62
0 93 29 26 24 57 72 57 87 0 3 -7 5 -15 5 -8 0 -15 -5 -15 -10z"
                />
                <path
                  d="M3445 1131 c-8 -14 13 -51 29 -51 9 0 12 7 9 20 -7 26 -29 44 -38 31z"
                />
                <path
                  d="M3538 1072 c-31 -76 -32 -82 -17 -82 10 0 69 119 69 140 0 5 -6 10
-12 10 -7 0 -25 -31 -40 -68z"
                />
                <path
                  d="M3760 1130 c36 -12 72 -12 65 0 -3 6 -25 10 -48 9 -36 -1 -38 -2 -17
-9z"
                />
                <path
                  d="M3831 1088 c-39 -29 -71 -56 -71 -61 0 -14 75 30 120 72 64 57 35 51
-49 -11z"
                />
                <path
                  d="M3499 1109 c11 -32 34 -38 29 -8 -1 13 -11 25 -20 27 -15 3 -16 -1
-9 -19z"
                />
              </g>
              <g
                transform="translate(0.000000,500.000000) scale(0.100000,-0.100000)"
                style='fill:#fff'
              >
                <path
                  d="M1153 3856 c-94 -30 -165 -97 -228 -217 -21 -39 -60 -96 -87 -126
-41 -46 -121 -149 -211 -273 l-18 -25 5 49 c29 253 30 337 5 464 -9 46 -13 53
-32 50 -30 -4 -101 -146 -117 -234 -25 -129 2 -283 66 -385 l22 -36 -29 -49
c-37 -64 -93 -194 -139 -322 l-36 -103 -13 163 c-13 168 -23 210 -54 216 -45
9 -107 -109 -107 -203 0 -107 42 -232 101 -298 l39 -46 -11 -73 c-14 -93 -6
-380 14 -468 8 -36 14 -66 13 -67 -2 -2 -24 29 -51 68 -66 96 -131 162 -193
193 -89 45 -102 32 -68 -66 29 -82 84 -166 144 -219 43 -38 171 -109 197 -109
5 0 27 -49 48 -110 21 -60 70 -171 108 -247 38 -75 69 -138 69 -139 0 -2 -24
13 -53 33 -120 82 -234 120 -276 94 -18 -11 -2 -61 40 -125 73 -109 214 -174
339 -155 39 6 47 4 60 -14 72 -103 174 -229 252 -312 51 -54 84 -95 73 -90
-53 21 -128 37 -211 42 -151 10 -177 -9 -101 -70 114 -93 277 -130 403 -92
l49 14 65 -43 c72 -49 175 -103 260 -136 70 -28 218 -61 225 -50 7 11 -1 16
-55 30 -25 7 -79 25 -121 41 l-76 29 -7 48 c-8 60 -44 138 -101 217 -57 81
-112 130 -130 115 -25 -21 21 -172 80 -260 19 -28 31 -50 29 -50 -15 0 -170
112 -245 177 l-86 74 -6 82 c-7 91 -34 198 -70 279 -25 57 -82 121 -101 115
-7 -3 -11 -35 -10 -93 1 -68 7 -105 26 -157 14 -37 24 -67 23 -67 -6 0 -132
177 -182 255 -27 44 -72 119 -98 167 l-47 88 31 60 c43 87 54 155 48 290 -10
214 -44 270 -99 160 -38 -76 -50 -145 -46 -261 1 -54 2 -99 1 -99 0 0 -15 38
-32 85 -40 111 -68 223 -86 342 -14 91 -14 98 3 106 46 25 134 133 171 210 61
126 91 267 57 267 -34 0 -168 -170 -223 -283 l-25 -52 6 90 c4 50 17 137 30
195 29 126 89 296 104 293 18 -4 121 26 165 48 69 36 152 106 211 181 68 84
71 103 19 95 -47 -8 -191 -77 -265 -128 -32 -21 -58 -36 -58 -33 0 26 163 273
264 401 62 78 72 86 174 137 137 69 187 116 242 230 23 47 39 90 35 96 -8 14
-61 12 -112 -4z"
                />
                <path
                  d="M3765 3861 c-4 -7 11 -50 34 -97 55 -115 108 -166 241 -231 102 -49
107 -54 175 -139 39 -49 91 -118 116 -154 44 -62 149 -236 149 -245 0 -3 -32
16 -70 41 -139 90 -290 148 -290 111 0 -25 89 -136 152 -188 33 -27 83 -61
111 -76 53 -27 155 -56 168 -47 9 5 60 -127 87 -231 24 -89 52 -261 52 -315
-1 -33 -3 -30 -43 47 -48 89 -79 134 -146 206 -72 78 -91 60 -61 -60 39 -151
141 -318 222 -361 23 -13 24 -16 16 -80 -14 -120 -68 -330 -111 -431 -14 -32
-14 -28 -9 60 5 112 -8 186 -49 269 -45 90 -67 80 -87 -40 -20 -119 -22 -167
-12 -241 13 -90 35 -159 62 -194 l20 -26 -43 -82 c-57 -110 -137 -239 -211
-339 -82 -112 -82 -112 -53 -28 29 85 45 233 26 244 -21 13 -70 -34 -101 -97
-42 -86 -69 -187 -77 -285 l-6 -84 -55 -51 c-63 -61 -185 -154 -243 -187 l-41
-22 35 51 c62 89 107 247 77 266 -27 16 -166 -153 -204 -250 -9 -22 -20 -60
-24 -85 -9 -52 -16 -57 -162 -106 -98 -33 -135 -61 -64 -48 147 26 331 102
454 188 l62 43 47 -14 c31 -10 75 -13 138 -10 79 4 102 9 165 39 90 43 158
101 141 118 -29 30 -225 18 -325 -20 l-50 -19 89 92 c86 89 215 248 251 309
16 29 19 30 68 24 150 -17 308 73 371 210 25 56 25 58 7 71 -41 31 -133 0
-267 -90 l-68 -46 50 92 c55 103 129 273 156 358 17 55 19 57 71 73 63 20 157
87 206 147 62 76 88 135 88 201 l0 58 -37 -15 c-71 -30 -115 -69 -192 -171
-42 -56 -77 -102 -77 -101 -1 1 5 31 13 67 20 93 28 346 14 453 l-12 88 40 46
c47 53 77 127 93 228 15 99 -6 194 -56 244 -64 64 -83 30 -97 -173 -5 -78 -11
-150 -12 -161 -1 -11 -20 32 -42 95 -22 63 -67 171 -101 240 l-62 124 23 36
c96 154 97 380 2 554 -43 78 -70 86 -85 24 -26 -105 -25 -255 5 -488 l6 -45
-70 100 c-39 55 -102 136 -140 180 -38 44 -89 116 -113 160 -56 102 -105 154
-175 189 -64 31 -148 45 -160 27z"
                />
              </g>
</svg>
