<?xml version="1.0" standalone="no"?>
<!DOCTYPE svg PUBLIC "-//W3C//DTD SVG 20010904//EN"
 "http://www.w3.org/TR/2001/REC-SVG-20010904/DTD/svg10.dtd">
<svg version="1.0" xmlns="http://www.w3.org/2000/svg"
 width="512.000000pt" height="512.000000pt" viewBox="0 0 512.000000 512.000000"
 preserveAspectRatio="xMidYMid meet">

<g transform="translate(0.000000,512.000000) scale(0.100000,-0.100000)"
fill="#000000" stroke="none">
<path d="M2435 5059 c-160 -21 -346 -91 -476 -180 -81 -55 -207 -176 -270
-258 -68 -90 -152 -265 -186 -386 l-28 -100 0 -724 0 -723 37 -32 37 -33 3
-654 3 -654 23 -36 c37 -60 68 -69 245 -69 152 0 157 -1 183 -25 14 -13 62
-37 105 -52 64 -23 79 -32 77 -47 -2 -14 -28 -25 -113 -50 -200 -58 -344 -132
-412 -210 l-33 -37 0 -132 c0 -113 -3 -139 -20 -172 -56 -110 12 -213 198
-302 303 -145 878 -180 1283 -78 115 29 218 67 278 102 63 36 131 102 147 140
18 42 17 101 -1 133 -10 18 -14 62 -15 158 0 153 -9 183 -66 230 -73 60 -234
134 -368 168 -136 34 -136 34 -136 54 0 14 15 24 63 39 69 23 127 55 127 71 0
6 59 10 163 10 188 0 214 9 247 83 19 40 20 73 20 693 l0 652 25 6 c14 4 32
18 42 32 15 24 17 86 21 713 4 656 3 690 -16 781 -68 324 -250 580 -531 750
-187 112 -448 167 -656 139z m399 -53 c373 -112 650 -396 754 -775 l27 -96 -2
-705 c-1 -388 -5 -715 -8 -727 -5 -22 -42 -50 -52 -40 -3 3 6 20 19 37 l23 32
5 621 c3 342 2 660 -3 707 -38 433 -341 796 -772 927 -83 25 -103 27 -265 27
-148 0 -187 -4 -253 -22 -403 -112 -705 -437 -782 -845 -12 -66 -15 -193 -15
-752 0 -659 0 -672 20 -690 21 -19 27 -45 11 -45 -5 0 -19 12 -31 27 l-21 27
3 705 4 706 26 98 c84 306 286 560 558 701 177 92 287 116 505 112 139 -3 172
-7 249 -30z m-29 -35 c87 -23 237 -91 313 -142 227 -154 387 -394 443 -664 17
-81 19 -141 19 -576 0 -491 -6 -673 -21 -663 -5 3 -9 25 -9 49 0 25 -6 50 -15
58 -16 17 -178 58 -330 83 -66 11 -105 23 -115 35 -8 9 -36 20 -62 23 l-48 7
0 106 0 105 100 -4 c116 -4 124 6 31 39 -288 104 -872 107 -1160 6 -93 -32
-78 -43 63 -43 l126 0 0 -110 0 -110 -55 0 c-39 0 -59 -5 -72 -18 -12 -12 -52
-24 -118 -36 -132 -22 -317 -66 -332 -78 -7 -6 -13 -32 -13 -59 0 -26 -5 -51
-10 -54 -8 -5 -10 179 -7 597 3 699 1 680 107 893 145 295 402 496 720 566
114 25 328 20 445 -10z m-125 -1491 c146 -9 278 -29 358 -52 37 -11 -46 -13
-512 -13 -306 0 -556 1 -556 2 0 15 237 54 375 63 176 10 177 10 335 0z m60
-185 l0 -105 -169 0 c-93 0 -176 -3 -185 -6 -14 -5 -16 7 -16 99 0 75 4 107
13 110 6 3 90 6 185 6 l172 1 0 -105z m80 -6 c0 -109 0 -110 -22 -107 -22 3
-23 8 -26 111 l-3 107 26 0 25 0 0 -111z m58 -2 c3 -102 2 -107 -18 -107 -19
0 -20 6 -20 111 0 100 2 110 18 107 15 -3 17 -18 20 -111z m-658 -2 l0 -105
-30 0 -30 0 0 105 0 105 30 0 30 0 0 -105z m50 0 c0 -87 -3 -105 -15 -105 -12
0 -15 18 -15 105 0 87 3 105 15 105 12 0 15 -18 15 -105z m80 0 l0 -105 -25 0
-25 0 0 105 0 105 25 0 25 0 0 -105z m600 0 l0 -105 -25 0 -25 0 0 105 0 105
25 0 25 0 0 -105z m126 -151 c14 -16 44 -25 119 -38 55 -9 151 -29 213 -43
l112 -27 0 -41 0 -42 -142 -6 c-186 -9 -1460 -9 -1657 0 l-152 6 3 41 3 41 85
21 c47 12 144 32 215 45 73 12 138 30 149 38 27 24 133 29 607 27 420 -1 427
-1 445 -22z m474 -239 c0 -13 -118 -15 -1000 -15 -882 0 -1000 2 -1000 15 0
13 118 15 1000 15 882 0 1000 -2 1000 -15z m-1994 -59 c-3 -11 -6 -46 -6 -76
0 -39 -3 -51 -10 -40 -5 8 -10 45 -10 82 0 57 2 66 16 61 10 -4 14 -13 10 -27z
m2007 -106 c-5 -19 -9 -6 -13 50 -3 46 -2 78 5 82 13 9 19 -95 8 -132z m-1903
123 c0 -5 -7 -17 -15 -27 -13 -17 -15 -122 -15 -735 0 -683 1 -717 19 -747 32
-52 72 -64 215 -64 l126 0 0 -25 0 -25 -161 0 c-176 0 -201 6 -233 60 -14 25
-16 103 -16 792 0 421 3 768 7 771 9 10 73 9 73 0z m174 -48 c-32 -30 -66 -54
-74 -55 -24 0 -40 -21 -40 -50 0 -14 -10 -53 -22 -85 -22 -58 -23 -73 -23
-370 0 -268 3 -319 18 -375 25 -88 88 -216 131 -267 20 -22 36 -49 36 -58 0
-9 9 -19 21 -22 14 -4 18 -11 13 -22 -15 -38 -14 -49 10 -78 14 -17 26 -43 26
-59 0 -15 7 -36 17 -46 15 -17 12 -18 -96 -18 -126 0 -161 11 -186 60 -22 43
-23 1416 0 1460 19 37 24 38 134 39 l94 1 -59 -55z m1361 26 c28 -16 65 -45
84 -65 l34 -35 -19 -36 c-50 -94 -260 -322 -527 -574 -107 -100 -203 -188
-214 -196 -18 -13 -29 -6 -149 96 -310 266 -572 523 -633 622 l-23 38 33 42
c43 53 81 86 133 115 l41 22 595 0 595 0 50 -29z m210 23 c45 -18 45 -22 45
-764 0 -769 2 -743 -60 -775 -20 -11 -60 -15 -135 -15 l-105 0 20 20 c11 11
20 32 20 46 0 14 9 37 20 51 21 27 27 68 10 78 -16 10 -12 23 10 30 11 3 20
13 20 21 0 7 16 35 36 61 49 64 90 148 116 240 22 74 23 96 23 388 0 341 1
330 -67 473 -26 54 -45 82 -56 82 -9 1 -35 16 -57 35 l-40 35 92 0 c50 0 99
-3 108 -6z m119 -16 c3 -13 6 -355 6 -761 0 -818 2 -788 -64 -828 -27 -16 -52
-19 -188 -19 l-158 0 0 25 0 25 120 0 c139 0 179 12 210 62 19 32 20 48 20
749 0 613 -2 718 -15 735 -22 29 -18 34 24 34 32 0 40 -4 45 -22z m-153 -201
c24 -51 24 -56 24 -402 0 -338 -1 -352 -23 -415 -27 -79 -74 -164 -126 -229
l-38 -48 -47 9 c-98 18 -436 206 -576 321 l-30 25 55 48 c312 278 681 667 706
746 8 27 27 9 55 -55z m-1520 -127 c92 -105 433 -420 627 -580 l43 -36 -109
-82 c-179 -135 -425 -272 -490 -272 -24 0 -102 96 -147 182 -67 127 -75 182
-75 523 0 248 3 311 16 356 l16 54 27 -35 c14 -19 56 -68 92 -110z m769 -690
c164 -121 368 -235 494 -275 38 -12 63 -25 57 -29 -6 -4 -20 -25 -31 -46 -23
-45 -57 -59 -220 -87 -136 -24 -594 -24 -730 0 -162 28 -191 40 -219 89 -14
24 -23 45 -21 48 1 3 28 14 60 26 107 38 280 144 440 268 47 36 86 66 87 66 2
0 39 -27 83 -60z m585 -370 c-9 -28 -77 -65 -163 -89 -249 -68 -745 -67 -983
3 -104 31 -169 80 -150 113 8 15 10 15 11 2 1 -43 92 -85 254 -116 73 -14 148
-17 381 -17 233 0 308 3 381 17 168 32 254 72 254 121 1 19 1 20 11 3 6 -9 7
-26 4 -37z m-1198 -90 c248 -94 814 -97 1086 -4 l67 23 0 -24 c0 -27 -42 -50
-142 -78 -174 -50 -460 -70 -670 -47 -208 22 -390 81 -396 128 -4 27 -8 26 55
2z m113 -110 c243 -68 629 -68 875 -1 39 11 78 23 88 26 14 6 17 1 17 -26 0
-19 -4 -39 -8 -45 -13 -21 -92 -54 -179 -77 -80 -20 -112 -22 -358 -22 -286 0
-324 5 -458 55 -71 27 -87 42 -87 87 0 29 3 34 18 30 9 -3 51 -15 92 -27z
m291 -171 c137 -11 345 -3 467 18 l32 5 0 -71 0 -72 -45 -19 c-129 -55 -304
-73 -448 -46 -95 18 -187 50 -199 69 -4 7 -8 41 -8 76 l0 63 28 -5 c15 -4 93
-11 173 -18z m-221 -83 c0 -51 8 -59 86 -87 187 -65 380 -65 568 0 78 28 86
36 86 87 0 40 2 44 24 44 46 0 233 -62 333 -110 56 -28 120 -67 143 -88 l40
-39 0 -213 0 -213 -45 -43 c-218 -209 -906 -284 -1408 -153 -123 32 -274 108
-325 163 l-42 46 0 195 0 195 36 40 c60 66 213 143 384 194 119 35 120 35 120
-18z m-496 -684 c165 -152 613 -245 1029 -214 251 19 433 60 582 132 97 46
156 95 184 152 16 33 21 38 21 20 0 -88 -141 -191 -350 -257 -178 -55 -299
-70 -595 -70 -238 0 -285 3 -395 23 -294 53 -491 147 -541 256 -10 23 -18 50
-18 61 0 13 7 6 18 -20 10 -22 39 -59 65 -83z"/>
<path d="M1659 3017 c13 -13 897 -24 1301 -16 212 4 406 8 433 8 26 1 47 4 47
9 0 4 -403 7 -895 7 -491 0 -891 -3 -886 -8z"/>
<path d="M1906 701 c11 -11 151 -54 247 -75 271 -62 625 -60 905 4 101 24 213
59 227 71 15 15 -7 11 -138 -25 -206 -57 -314 -71 -552 -71 -238 0 -346 14
-552 71 -132 36 -153 40 -137 25z"/>
</g>
</svg>
