<?xml version="1.0" standalone="no"?>
<!DOCTYPE svg PUBLIC "-//W3C//DTD SVG 20010904//EN"
 "http://www.w3.org/TR/2001/REC-SVG-20010904/DTD/svg10.dtd">
<svg version="1.0" xmlns="http://www.w3.org/2000/svg"
 width="512.000000pt" height="512.000000pt" viewBox="0 0 512.000000 512.000000"
 preserveAspectRatio="xMidYMid meet">

<g transform="translate(0.000000,512.000000) scale(0.100000,-0.100000)"
fill="#000000" stroke="none">
<path d="M2565 4010 c-11 -5 -200 -134 -420 -288 l-400 -278 -146 -268 c-169
-311 -266 -450 -440 -630 l-117 -121 -276 -94 c-247 -84 -279 -93 -301 -81
-32 17 -55 6 -55 -26 0 -17 6 -28 20 -31 11 -3 20 -12 20 -19 0 -8 9 -14 21
-14 16 0 20 5 17 27 -3 26 0 27 241 110 134 46 246 82 248 79 5 -5 -121 -97
-187 -136 -30 -18 -188 -123 -350 -234 -162 -111 -300 -205 -307 -209 -7 -4
-21 -2 -32 5 -15 9 -23 9 -35 -1 -22 -18 -20 -52 3 -58 11 -3 21 -13 24 -24 3
-11 14 -19 25 -19 18 0 20 5 15 33 l-5 33 313 215 314 214 184 63 c101 34 186
60 188 59 2 -2 -9 -30 -23 -63 -46 -102 -64 -165 -65 -223 0 -37 -11 -85 -32
-141 l-32 -84 -78 -19 c-77 -19 -101 -37 -79 -59 7 -7 37 -4 100 11 l89 23
334 -71 c579 -121 1049 -209 1214 -226 33 -3 75 -8 93 -11 l32 -5 0 -68 c0
-75 12 -95 52 -89 22 3 23 6 20 85 l-4 81 57 7 c31 4 57 6 59 4 2 -2 27 -128
55 -280 46 -241 51 -282 43 -328 -8 -41 -7 -54 4 -58 19 -7 34 5 34 28 0 10 7
19 15 19 24 0 20 61 -5 67 -11 3 -20 8 -20 11 0 2 -23 126 -51 274 -28 148
-50 271 -48 273 4 3 998 162 1142 182 26 4 59 -2 112 -22 79 -28 105 -28 105
3 0 14 -16 22 -70 37 -38 11 -70 22 -70 26 0 11 174 284 183 288 5 2 166 -128
358 -289 233 -195 349 -298 349 -311 0 -24 18 -24 48 -1 16 13 23 26 20 43 -4
28 -36 38 -52 16 -9 -12 -71 35 -343 262 -237 198 -326 277 -312 279 11 2 19
11 19 23 0 18 -11 23 -65 31 -23 4 -32 36 -41 164 l-7 90 53 42 c29 23 56 42
60 42 4 0 131 -51 281 -114 226 -94 275 -117 277 -135 4 -26 19 -26 50 -3 16
13 23 26 20 43 -4 28 -36 38 -53 16 -9 -13 -55 3 -325 114 -424 174 -441 183
-535 270 -213 196 -620 597 -826 815 -269 284 -646 635 -679 633 -3 0 -14 -4
-25 -9z m102 -72 c32 -28 59 -55 61 -59 11 -26 -99 -16 -176 17 -18 8 -39 14
-47 14 -7 0 -16 4 -20 9 -8 13 75 70 102 71 14 0 46 -21 80 -52z m-127 -63
c34 -17 33 -13 55 -295 46 -567 119 -1293 149 -1480 8 -47 13 -86 12 -87 -1
-1 -117 138 -257 309 -499 611 -766 918 -799 918 -10 0 -32 -17 -49 -37 l-32
-38 35 65 c19 36 52 96 73 133 l38 69 335 234 c322 224 337 234 374 229 21 -3
51 -12 66 -20z m110 -29 c17 -3 41 -27 70 -68 187 -268 643 -854 870 -1118
144 -168 403 -431 472 -480 27 -18 47 -34 45 -36 -1 -1 -103 -12 -227 -23
-511 -49 -940 -104 -1044 -135 -53 -16 -49 -24 -70 114 -31 194 -116 1051
-156 1565 -6 77 -13 153 -15 168 -4 23 -2 27 13 24 9 -3 28 -8 42 -11z m241
-111 c72 -66 235 -230 362 -364 220 -231 716 -719 859 -844 58 -50 195 -127
228 -127 6 0 -26 -37 -72 -82 -46 -46 -92 -101 -103 -123 -11 -22 -21 -42 -22
-44 -6 -11 -147 112 -268 233 -265 267 -656 746 -1064 1304 -107 146 -110 153
-89 162 13 5 26 8 30 7 5 -1 67 -56 139 -122z m-1186 -552 c-132 -201 -463
-745 -476 -781 -5 -15 -31 -126 -58 -246 -27 -120 -52 -220 -54 -223 -3 -2
-17 13 -31 34 -50 72 -29 156 101 403 132 252 507 855 524 844 6 -3 3 -16 -6
-31z m-23 -230 c-217 -202 -225 -209 -216 -192 5 9 68 109 139 223 l130 207
47 -50 47 -51 -147 -137z m222 49 c31 -38 72 -93 90 -124 l34 -56 -62 -93 -62
-92 -234 -53 c-129 -30 -263 -60 -298 -68 l-63 -14 22 36 c11 21 35 60 52 87
19 31 110 124 243 248 118 108 215 197 217 197 3 0 30 -31 61 -68z m-588 -359
c-51 -87 -110 -189 -132 -227 l-39 -70 -144 -48 c-80 -26 -141 -44 -135 -40 5
5 47 38 94 74 100 77 289 269 379 386 35 45 65 82 67 82 1 0 -39 -71 -90 -157z
m792 65 l32 -47 -32 -5 c-65 -10 -168 -16 -168 -11 0 3 23 40 51 81 l50 75 18
-23 c10 -13 32 -44 49 -70z m201 -187 c110 -134 201 -252 201 -263 0 -19 24
-95 109 -341 28 -82 51 -159 51 -171 0 -12 -13 -35 -29 -50 l-29 -28 -15 29
c-21 40 -42 123 -92 365 l-42 207 -160 213 c-298 398 -296 406 6 39z m-34 -37
c77 -103 113 -159 105 -164 -10 -6 -431 -23 -436 -17 -3 3 -23 311 -21 314 1
1 52 6 112 11 61 5 113 10 116 11 4 0 59 -69 124 -155z m-371 44 c3 -46 7
-117 8 -158 l3 -74 -364 -103 c-201 -56 -367 -101 -369 -98 -9 9 63 294 85
336 l24 45 287 66 c158 36 294 66 304 67 13 1 17 -13 22 -81z m530 -260 c7
-13 17 -41 21 -63 17 -105 89 -423 106 -473 10 -30 18 -57 16 -58 -12 -13
-1415 231 -1433 248 -1 2 4 35 13 73 l15 70 372 105 c408 116 395 113 738 118
133 2 138 1 152 -20z m1831 -178 l7 -43 -28 21 c-81 61 -87 68 -74 93 7 13 27
44 44 68 l31 43 6 -69 c4 -38 10 -89 14 -113z m-1619 20 l77 -95 -7 -270 c-4
-148 -8 -270 -9 -271 -6 -6 -218 21 -377 47 -337 55 -1306 252 -1323 269 -5 4
4 47 19 95 l29 87 20 -24 c11 -13 27 -29 35 -35 36 -27 1367 -263 1483 -263
47 0 97 50 97 96 0 18 -34 130 -75 249 -41 120 -75 222 -75 228 0 15 13 1 106
-113z m1563 -41 c34 -28 61 -55 61 -59 0 -5 -40 -73 -89 -150 l-89 -141 -6 73
c-3 40 -7 130 -9 201 l-3 127 37 0 c30 0 49 -10 98 -51z m-156 -46 c4 -49 8
-144 9 -213 l3 -125 -589 -93 c-324 -51 -590 -91 -592 -90 -7 8 -84 439 -79
447 14 24 332 74 735 116 388 40 412 42 461 44 l46 1 6 -87z m-1234 -302 c23
-123 40 -225 39 -226 -2 -2 -32 -6 -67 -10 l-64 -7 6 92 c4 51 7 165 7 254 0
157 0 160 19 141 14 -15 30 -80 60 -244z m-1884 45 c-62 -20 -101 -28 -93 -21
8 8 97 33 118 33 8 0 -3 -6 -25 -12z m3285 -126 c18 -12 2 -12 -25 0 -13 6
-15 9 -5 9 8 0 22 -4 30 -9z m-1488 -257 c4 -76 3 -82 -14 -65 -6 6 -14 39
-16 72 -4 49 -2 60 11 60 12 0 16 -15 19 -67z"/>
<path d="M1822 3401 c5 -17 688 -632 709 -639 31 -12 -9 31 -143 150 -84 75
-243 217 -352 317 -182 165 -224 199 -214 172z"/>
<path d="M3305 2171 c-277 -28 -448 -50 -445 -56 3 -5 12 -9 20 -8 8 1 209 20
445 43 471 45 479 46 470 60 -8 12 44 16 -490 -39z"/>
<path d="M4108 2365 c-68 -65 -76 -75 -59 -75 12 0 141 120 141 131 0 18 -17
7 -82 -56z"/>
<path d="M4175 1939 c-50 -70 -39 -86 13 -18 23 31 42 59 42 62 0 19 -22 1
-55 -44z"/>
<path d="M3715 1733 c-16 -2 -163 -20 -325 -39 -331 -39 -355 -43 -343 -54 4
-5 96 2 203 15 107 14 281 34 385 46 105 11 194 25 200 30 9 9 -59 10 -120 2z"/>
</g>
</svg>
