<?xml version="1.0" standalone="no"?>
<!DOCTYPE svg PUBLIC "-//W3C//DTD SVG 20010904//EN"
 "http://www.w3.org/TR/2001/REC-SVG-20010904/DTD/svg10.dtd">
<svg version="1.0" xmlns="http://www.w3.org/2000/svg"
 width="512.000000pt" height="512.000000pt" viewBox="0 0 512.000000 512.000000"
 preserveAspectRatio="xMidYMid meet">

<g transform="translate(0.000000,512.000000) scale(0.100000,-0.100000)"
fill="#000000" stroke="none">
<path d="M2350 4028 c-144 -246 -275 -453 -438 -692 -127 -187 -239 -343 -247
-346 -8 -3 -34 -31 -57 -63 -34 -45 -169 -157 -618 -512 -379 -300 -580 -453
-591 -450 -9 3 -21 -1 -28 -9 -12 -14 -5 -46 10 -46 5 0 9 -7 9 -15 0 -8 9
-15 20 -15 16 0 19 5 14 28 -5 26 21 48 562 477 312 248 572 452 577 454 35
13 -164 -230 -514 -628 -393 -449 -405 -461 -440 -461 -57 0 -78 -41 -28 -52
21 -4 -485 -583 -510 -583 -23 0 -24 -36 -2 -64 23 -30 44 -20 36 18 -5 24 23
59 261 331 181 206 274 306 290 308 l22 3 -31 -121 -31 -120 -68 -21 c-65 -19
-68 -21 -68 -50 0 -24 4 -29 18 -25 9 2 42 12 72 21 l55 17 380 -168 c209 -92
382 -169 385 -171 3 -3 -2 -8 -11 -13 -9 -5 -27 -18 -40 -29 -20 -18 -22 -22
-9 -31 28 -18 71 -11 110 20 l39 31 838 -22 838 -21 64 -49 c35 -27 68 -49 73
-49 16 0 68 30 68 39 0 5 -23 23 -50 41 -28 18 -49 34 -48 35 7 6 359 77 362
74 2 -2 36 -74 75 -159 55 -119 70 -161 66 -182 -5 -20 -3 -28 7 -28 23 1 48
26 48 49 0 13 -6 21 -17 21 -13 0 -36 41 -86 152 -37 83 -66 153 -63 155 2 2
172 40 377 84 l374 80 58 -41 c64 -44 73 -46 101 -25 23 18 17 27 -54 75 l-60
40 26 57 c13 31 26 58 28 60 2 2 63 -76 137 -173 110 -145 133 -181 131 -205
-4 -34 10 -37 39 -8 25 25 21 51 -8 59 -20 5 -283 337 -283 357 0 20 54 133
64 133 6 0 36 -7 66 -15 50 -13 56 -13 67 2 7 9 10 19 8 23 -2 4 -35 15 -72
25 -37 10 -73 21 -79 24 -30 16 -432 465 -628 700 -136 164 -268 333 -361 466
-39 55 -44 66 -23 50 15 -11 347 -290 737 -620 617 -521 710 -604 710 -627 1
-34 20 -36 43 -3 22 29 13 59 -14 52 -14 -4 -207 154 -746 609 -605 511 -734
624 -770 677 -23 34 -49 61 -57 61 -20 -2 -372 537 -760 1164 -71 113 -126
192 -135 192 -9 0 -95 -137 -220 -352z m524 -169 c-2 -4 -18 -3 -34 2 -16 6
-60 8 -97 5 -37 -3 -84 -4 -103 -3 -92 5 -290 1 -327 -6 l-43 -9 136 234 c75
128 143 243 151 256 14 22 19 15 168 -224 85 -136 152 -251 149 -255z m-261
-18 c26 -4 49 -10 51 -12 11 -12 163 -915 155 -925 -11 -14 14 -153 29 -163 5
-3 17 -46 26 -96 9 -49 19 -103 23 -120 5 -25 -3 -18 -47 40 -68 89 -223 278
-385 470 -70 83 -133 159 -141 169 -13 19 -15 19 -63 -11 -27 -17 -147 -118
-267 -224 -120 -107 -279 -248 -354 -314 -143 -128 -193 -188 -429 -515 -65
-91 -131 -176 -146 -190 -15 -14 12 31 60 100 260 369 687 1013 1015 1525 84
132 156 244 161 249 20 23 210 34 312 17z m235 -8 c11 -10 87 -137 168 -283
604 -1088 1130 -1957 1324 -2188 54 -65 57 -71 37 -75 -93 -23 -739 -158 -741
-155 -2 2 -168 365 -369 808 -276 607 -369 821 -378 870 -6 36 -20 83 -30 105
-20 45 -174 909 -164 925 11 18 130 12 153 -7z m167 -180 c208 -330 559 -853
667 -998 169 -224 422 -522 732 -860 80 -88 146 -163 146 -167 0 -14 -60 -141
-64 -137 -16 16 -1036 1361 -1036 1365 0 18 -67 114 -80 114 -9 0 -45 55 -89
133 -41 72 -137 245 -214 382 -76 138 -152 274 -169 303 -16 28 -26 52 -21 52
5 0 63 -84 128 -187z m-918 -105 c-296 -461 -381 -585 -395 -581 -8 3 17 48
71 126 237 346 368 540 412 612 26 44 55 91 62 103 8 13 17 21 20 18 3 -3 -73
-128 -170 -278z m253 -430 c24 -40 76 -124 117 -186 l73 -113 0 -410 0 -409
-157 0 c-154 0 -380 -14 -748 -45 -143 -13 -212 -24 -333 -55 -84 -22 -157
-40 -162 -40 -13 0 41 86 116 186 34 45 114 158 177 251 113 165 119 172 319
355 111 103 282 266 378 362 96 97 175 176 176 176 1 0 21 -33 44 -72z m-265
-119 c-77 -77 -234 -227 -349 -332 -202 -186 -211 -197 -313 -347 -58 -85
-139 -200 -180 -255 -40 -55 -98 -140 -129 -190 -155 -250 -293 -399 -341
-369 -9 6 -21 18 -27 26 -12 20 4 41 226 285 90 99 196 226 237 284 224 315
300 408 424 518 67 60 226 201 352 314 127 113 232 206 235 206 3 1 -58 -62
-135 -140z m472 -106 c168 -203 279 -342 321 -404 34 -50 66 -167 147 -528 35
-157 65 -255 150 -491 59 -162 108 -305 108 -319 2 -19 -7 -29 -43 -47 -49
-25 -59 -28 -77 -16 -6 4 -44 176 -83 382 -56 295 -78 388 -101 436 -36 77
-65 198 -79 334 -6 58 -12 123 -14 144 -4 30 -16 50 -54 90 -63 66 -122 139
-209 262 -71 101 -215 324 -209 324 2 0 66 -75 143 -167z m-933 -31 c-7 -16
-24 -37 -36 -48 -15 -14 -12 -6 11 29 36 53 46 61 25 19z m1229 14 c12 -31 19
-106 10 -106 -6 0 -15 27 -20 60 -9 54 -3 81 10 46z m1122 -736 c274 -360 502
-660 507 -666 5 -8 -5 -40 -28 -90 l-36 -79 -42 47 c-51 55 -177 235 -299 426
-124 193 -564 929 -615 1027 -13 26 48 -53 513 -665z m-2531 413 c-341 -505
-523 -759 -630 -879 -40 -45 -83 -99 -97 -120 -25 -39 -77 -94 -77 -81 0 4 16
67 35 139 34 131 35 133 82 172 176 148 282 272 532 620 155 216 299 396 318
396 2 0 -71 -111 -163 -247z m1133 -621 c-1 -152 -2 -25 -2 283 0 308 1 433 2
277 2 -156 2 -408 0 -560z m102 690 c35 -46 90 -112 123 -148 l61 -65 9 -107
c8 -96 28 -230 44 -289 l6 -23 -145 0 c-80 0 -152 3 -161 6 -14 5 -16 47 -16
367 0 199 4 357 8 352 5 -6 37 -47 71 -93z m591 -740 c189 -414 341 -754 339
-756 -2 -2 -98 -24 -214 -49 -147 -32 -212 -42 -217 -34 -4 6 14 19 48 33 77
31 87 41 79 81 -3 18 -40 126 -82 241 -115 316 -142 398 -164 507 -11 55 -45
199 -74 320 -48 198 -96 433 -95 467 1 21 18 -16 380 -810z m-1996 536 c-190
-264 -280 -375 -393 -488 -120 -119 -205 -192 -185 -158 10 18 607 698 612
698 2 0 -13 -24 -34 -52z m1235 -444 l31 -6 0 -152 c0 -83 4 -157 9 -164 5 -8
17 -12 27 -10 18 3 19 16 22 166 l2 162 166 0 c148 0 165 -2 170 -17 4 -10 17
-40 29 -68 22 -46 140 -623 130 -633 -2 -2 -74 -22 -161 -43 l-157 -40 -581 3
c-529 3 -586 5 -636 22 -40 13 -662 317 -678 331 -1 1 18 24 43 51 25 27 73
89 108 137 34 49 67 95 72 103 6 8 89 34 185 59 158 40 199 46 430 65 476 38
714 49 789 34z m2140 -360 c10 -9 -35 -3 -49 6 -11 8 -7 9 15 4 17 -4 32 -8
34 -10z m38 -10 c-3 -3 -12 -4 -19 -1 -8 3 -5 6 6 6 11 1 17 -2 13 -5z m-3937
-109 c16 -19 43 -19 80 0 28 15 34 12 362 -150 252 -125 350 -169 403 -180 56
-12 180 -15 633 -15 l563 0 142 35 c78 20 149 38 158 41 13 4 18 -6 23 -47 4
-28 16 -73 27 -101 l20 -51 -178 6 c-98 4 -484 14 -858 23 l-680 18 -395 174
c-217 95 -398 176 -403 179 -11 6 62 83 79 83 6 0 17 -7 24 -15z m-145 -63
c-14 -12 -96 -34 -102 -28 -3 3 5 9 18 14 13 5 31 12 39 15 24 9 55 8 45 -1z
m3937 -214 c-12 -12 -102 50 -102 69 0 8 21 -1 55 -24 33 -21 52 -40 47 -45z
m-3108 -167 c7 -11 -38 -41 -61 -41 -14 1 -12 6 12 25 33 27 41 30 49 16z
m1838 -62 c51 -33 57 -43 32 -53 -18 -7 -107 61 -98 75 8 13 13 12 66 -22z"/>
<path d="M2427 3740 c-9 -21 -87 -368 -87 -388 0 -10 3 -12 9 -7 13 14 93 365
88 390 -3 16 -5 17 -10 5z"/>
<path d="M3977 1569 c-21 -11 -92 -33 -159 -49 -66 -16 -123 -32 -126 -35 -18
-17 21 -13 125 13 123 30 223 68 223 83 0 13 -20 9 -63 -12z"/>
</g>
</svg>
